<?xml version="1.0" encoding="UTF-8" standalone="no"?>
<!DOCTYPE svg PUBLIC "-//W3C//DTD SVG 1.1//EN"
 "http://www.w3.org/Graphics/SVG/1.1/DTD/svg11.dtd">
<!-- Generated by graphviz version 2.47.0 (20210316.0004)
 -->
<!-- Title: dbml Pages: 1 -->
<svg width="841pt" height="947pt"
 viewBox="0.00 0.00 840.97 947.04" xmlns="http://www.w3.org/2000/svg" xmlns:xlink="http://www.w3.org/1999/xlink">
<g id="graph0" class="graph" transform="scale(1 1) rotate(0) translate(4 943.04)">
<title>dbml</title>
<!-- flyway_schema_history -->
<g id="flyway_schema_history" class="node">
<title>flyway_schema_history</title>
<ellipse fill="none" stroke="black" stroke-width="0" cx="416.49" cy="-469.52" rx="416.47" ry="469.54"/>
<polygon fill="#1d71b8" stroke="transparent" points="124.49,-739.52 124.49,-799.52 709.49,-799.52 709.49,-739.52 124.49,-739.52"/>
<polygon fill="none" stroke="#29235c" points="124.49,-739.52 124.49,-799.52 709.49,-799.52 709.49,-739.52 124.49,-739.52"/>
<text text-anchor="start" x="189.38" y="-760.72" font-family="Helvetica,sans-Serif" font-weight="bold" font-size="32.00" fill="#ffffff"> &#160;&#160;&#160;&#160;&#160;&#160;flyway_schema_history &#160;&#160;&#160;&#160;&#160;&#160;</text>
<polygon fill="#e7e2dd" stroke="transparent" points="124.49,-679.52 124.49,-739.52 709.49,-739.52 709.49,-679.52 124.49,-679.52"/>
<polygon fill="none" stroke="#29235c" points="124.49,-679.52 124.49,-739.52 709.49,-739.52 709.49,-679.52 124.49,-679.52"/>
<text text-anchor="start" x="135.49" y="-699.72" font-family="Helvetica,sans-Serif" font-size="32.00" fill="#29235c">installed_rank &#160;&#160;&#160;</text>
<text text-anchor="start" x="561.59" y="-700.72" font-family="Helvetica,sans-Serif" font-style="italic" font-size="32.00" fill="#29235c">integer</text>
<text text-anchor="start" x="659.39" y="-700.72" font-family="Helvetica,sans-Serif" font-size="32.00" fill="#29235c"> </text>
<text text-anchor="start" x="668.29" y="-700.72" font-family="Helvetica,sans-Serif" font-weight="bold" font-size="32.00" fill="#29235c">(!)</text>
<polygon fill="#e7e2dd" stroke="transparent" points="124.49,-619.52 124.49,-679.52 709.49,-679.52 709.49,-619.52 124.49,-619.52"/>
<polygon fill="none" stroke="#29235c" points="124.49,-619.52 124.49,-679.52 709.49,-679.52 709.49,-619.52 124.49,-619.52"/>
<text text-anchor="start" x="135.49" y="-639.72" font-family="Helvetica,sans-Serif" font-size="32.00" fill="#29235c">version &#160;&#160;&#160;</text>
<text text-anchor="start" x="396.24" y="-640.72" font-family="Helvetica,sans-Serif" font-style="italic" font-size="32.00" fill="#29235c">character varying(50)</text>
<polygon fill="#e7e2dd" stroke="transparent" points="124.49,-559.52 124.49,-619.52 709.49,-619.52 709.49,-559.52 124.49,-559.52"/>
<polygon fill="none" stroke="#29235c" points="124.49,-559.52 124.49,-619.52 709.49,-619.52 709.49,-559.52 124.49,-559.52"/>
<text text-anchor="start" x="135.49" y="-579.72" font-family="Helvetica,sans-Serif" font-size="32.00" fill="#29235c">description &#160;&#160;&#160;</text>
<text text-anchor="start" x="339.36" y="-580.72" font-family="Helvetica,sans-Serif" font-style="italic" font-size="32.00" fill="#29235c">character varying(200)</text>
<text text-anchor="start" x="659.39" y="-580.72" font-family="Helvetica,sans-Serif" font-size="32.00" fill="#29235c"> </text>
<text text-anchor="start" x="668.29" y="-580.72" font-family="Helvetica,sans-Serif" font-weight="bold" font-size="32.00" fill="#29235c">(!)</text>
<polygon fill="#e7e2dd" stroke="transparent" points="124.49,-499.52 124.49,-559.52 709.49,-559.52 709.49,-499.52 124.49,-499.52"/>
<polygon fill="none" stroke="#29235c" points="124.49,-499.52 124.49,-559.52 709.49,-559.52 709.49,-499.52 124.49,-499.52"/>
<text text-anchor="start" x="135.49" y="-519.72" font-family="Helvetica,sans-Serif" font-size="32.00" fill="#29235c">type &#160;&#160;&#160;</text>
<text text-anchor="start" x="357.15" y="-520.72" font-family="Helvetica,sans-Serif" font-style="italic" font-size="32.00" fill="#29235c">character varying(20)</text>
<text text-anchor="start" x="659.39" y="-520.72" font-family="Helvetica,sans-Serif" font-size="32.00" fill="#29235c"> </text>
<text text-anchor="start" x="668.29" y="-520.72" font-family="Helvetica,sans-Serif" font-weight="bold" font-size="32.00" fill="#29235c">(!)</text>
<polygon fill="#e7e2dd" stroke="transparent" points="124.49,-439.52 124.49,-499.52 709.49,-499.52 709.49,-439.52 124.49,-439.52"/>
<polygon fill="none" stroke="#29235c" points="124.49,-439.52 124.49,-499.52 709.49,-499.52 709.49,-439.52 124.49,-439.52"/>
<text text-anchor="start" x="135.49" y="-459.72" font-family="Helvetica,sans-Serif" font-size="32.00" fill="#29235c">script &#160;&#160;&#160;</text>
<text text-anchor="start" x="321.57" y="-460.72" font-family="Helvetica,sans-Serif" font-style="italic" font-size="32.00" fill="#29235c">character varying(1000)</text>
<text text-anchor="start" x="659.39" y="-460.72" font-family="Helvetica,sans-Serif" font-size="32.00" fill="#29235c"> </text>
<text text-anchor="start" x="668.29" y="-460.72" font-family="Helvetica,sans-Serif" font-weight="bold" font-size="32.00" fill="#29235c">(!)</text>
<polygon fill="#e7e2dd" stroke="transparent" points="124.49,-379.52 124.49,-439.52 709.49,-439.52 709.49,-379.52 124.49,-379.52"/>
<polygon fill="none" stroke="#29235c" points="124.49,-379.52 124.49,-439.52 709.49,-439.52 709.49,-379.52 124.49,-379.52"/>
<text text-anchor="start" x="135.49" y="-399.72" font-family="Helvetica,sans-Serif" font-size="32.00" fill="#29235c">checksum &#160;&#160;&#160;</text>
<text text-anchor="start" x="600.68" y="-400.72" font-family="Helvetica,sans-Serif" font-style="italic" font-size="32.00" fill="#29235c">integer</text>
<polygon fill="#e7e2dd" stroke="transparent" points="124.49,-319.52 124.49,-379.52 709.49,-379.52 709.49,-319.52 124.49,-319.52"/>
<polygon fill="none" stroke="#29235c" points="124.49,-319.52 124.49,-379.52 709.49,-379.52 709.49,-319.52 124.49,-319.52"/>
<text text-anchor="start" x="135.24" y="-339.72" font-family="Helvetica,sans-Serif" font-size="32.00" fill="#29235c">installed_by &#160;&#160;&#160;</text>
<text text-anchor="start" x="339.42" y="-340.72" font-family="Helvetica,sans-Serif" font-style="italic" font-size="32.00" fill="#29235c">character varying(100)</text>
<text text-anchor="start" x="659.46" y="-340.72" font-family="Helvetica,sans-Serif" font-size="32.00" fill="#29235c"> </text>
<text text-anchor="start" x="668.35" y="-340.72" font-family="Helvetica,sans-Serif" font-weight="bold" font-size="32.00" fill="#29235c">(!)</text>
<polygon fill="#e7e2dd" stroke="transparent" points="124.49,-259.52 124.49,-319.52 709.49,-319.52 709.49,-259.52 124.49,-259.52"/>
<polygon fill="none" stroke="#29235c" points="124.49,-259.52 124.49,-319.52 709.49,-319.52 709.49,-259.52 124.49,-259.52"/>
<text text-anchor="start" x="135.49" y="-279.72" font-family="Helvetica,sans-Serif" font-size="32.00" fill="#29235c">installed_on &#160;&#160;&#160;</text>
<text text-anchor="start" x="511.84" y="-280.72" font-family="Helvetica,sans-Serif" font-style="italic" font-size="32.00" fill="#29235c">timestamp</text>
<text text-anchor="start" x="659.39" y="-280.72" font-family="Helvetica,sans-Serif" font-size="32.00" fill="#29235c"> </text>
<text text-anchor="start" x="668.29" y="-280.72" font-family="Helvetica,sans-Serif" font-weight="bold" font-size="32.00" fill="#29235c">(!)</text>
<polygon fill="#e7e2dd" stroke="transparent" points="124.49,-199.52 124.49,-259.52 709.49,-259.52 709.49,-199.52 124.49,-199.52"/>
<polygon fill="none" stroke="#29235c" points="124.49,-199.52 124.49,-259.52 709.49,-259.52 709.49,-199.52 124.49,-199.52"/>
<text text-anchor="start" x="135.49" y="-219.72" font-family="Helvetica,sans-Serif" font-size="32.00" fill="#29235c">execution_time &#160;&#160;&#160;</text>
<text text-anchor="start" x="561.59" y="-220.72" font-family="Helvetica,sans-Serif" font-style="italic" font-size="32.00" fill="#29235c">integer</text>
<text text-anchor="start" x="659.39" y="-220.72" font-family="Helvetica,sans-Serif" font-size="32.00" fill="#29235c"> </text>
<text text-anchor="start" x="668.29" y="-220.72" font-family="Helvetica,sans-Serif" font-weight="bold" font-size="32.00" fill="#29235c">(!)</text>
<polygon fill="#e7e2dd" stroke="transparent" points="124.49,-139.52 124.49,-199.52 709.49,-199.52 709.49,-139.52 124.49,-139.52"/>
<polygon fill="none" stroke="#29235c" points="124.49,-139.52 124.49,-199.52 709.49,-199.52 709.49,-139.52 124.49,-139.52"/>
<text text-anchor="start" x="135.49" y="-159.72" font-family="Helvetica,sans-Serif" font-size="32.00" fill="#29235c">success &#160;&#160;&#160;</text>
<text text-anchor="start" x="545.56" y="-160.72" font-family="Helvetica,sans-Serif" font-style="italic" font-size="32.00" fill="#29235c">boolean</text>
<text text-anchor="start" x="659.39" y="-160.72" font-family="Helvetica,sans-Serif" font-size="32.00" fill="#29235c"> </text>
<text text-anchor="start" x="668.29" y="-160.72" font-family="Helvetica,sans-Serif" font-weight="bold" font-size="32.00" fill="#29235c">(!)</text>
<polygon fill="none" stroke="#29235c" stroke-width="2" points="122.99,-138.52 122.99,-800.52 709.99,-800.52 709.99,-138.52 122.99,-138.52"/>
</g>
</g>
</svg>
